<?xml version="1.0" encoding="UTF-8" standalone="no"?>
<svg width="400" height="300" viewBox="0 0 400 300" fill="none" xmlns="http://www.w3.org/2000/svg">
    <!-- Background -->
    <rect width="400" height="300" fill="#F8F8F8" rx="12"/>
    
    <!-- Graph Lines -->
    <path d="M50 250 L150 180 L250 220 L350 100" stroke="#00D54B" stroke-width="3" fill="none"/>
    <path d="M50 200 L150 150 L250 190 L350 150" stroke="#0BB1D3" stroke-width="3" fill="none" opacity="0.5"/>
    
    <!-- Dots -->
    <circle cx="50" cy="250" r="6" fill="#00D54B"/>
    <circle cx="150" cy="180" r="6" fill="#00D54B"/>
    <circle cx="250" cy="220" r="6" fill="#00D54B"/>
    <circle cx="350" cy="100" r="6" fill="#00D54B"/>
    
    <!-- Secondary Dots -->
    <circle cx="50" cy="200" r="6" fill="#0BB1D3"/>
    <circle cx="150" cy="150" r="6" fill="#0BB1D3"/>
    <circle cx="250" cy="190" r="6" fill="#0BB1D3"/>
    <circle cx="350" cy="150" r="6" fill="#0BB1D3"/>
    
    <!-- Grid Lines -->
    <path d="M50 50 L50 250" stroke="#E0E0E0" stroke-width="1" stroke-dasharray="4"/>
    <path d="M150 50 L150 250" stroke="#E0E0E0" stroke-width="1" stroke-dasharray="4"/>
    <path d="M250 50 L250 250" stroke="#E0E0E0" stroke-width="1" stroke-dasharray="4"/>
    <path d="M350 50 L350 250" stroke="#E0E0E0" stroke-width="1" stroke-dasharray="4"/>
    
    <path d="M25 50 L375 50" stroke="#E0E0E0" stroke-width="1" stroke-dasharray="4"/>
    <path d="M25 100 L375 100" stroke="#E0E0E0" stroke-width="1" stroke-dasharray="4"/>
    <path d="M25 150 L375 150" stroke="#E0E0E0" stroke-width="1" stroke-dasharray="4"/>
    <path d="M25 200 L375 200" stroke="#E0E0E0" stroke-width="1" stroke-dasharray="4"/>
    <path d="M25 250 L375 250" stroke="#E0E0E0" stroke-width="1" stroke-dasharray="4"/>
    
    <!-- Dollar Signs -->
    <text x="50" y="40" font-family="Arial" font-size="12" fill="#666">$0</text>
    <text x="150" y="40" font-family="Arial" font-size="12" fill="#666">$50</text>
    <text x="250" y="40" font-family="Arial" font-size="12" fill="#666">$100</text>
    <text x="350" y="40" font-family="Arial" font-size="12" fill="#666">$150</text>
</svg>