<?xml version="1.0" encoding="UTF-8" standalone="no"?>
<svg width="800" height="400" viewBox="0 0 800 400" fill="none" xmlns="http://www.w3.org/2000/svg">
    <!-- Background -->
    <rect width="800" height="400" fill="#F8F8F8" rx="12"/>
    
    <!-- Cash App Icon -->
    <circle cx="400" cy="200" r="100" fill="#00D54B"/>
    <path d="M400 140 L400 260 M340 200 L460 200" stroke="white" stroke-width="12"/>
    
    <!-- Feature Icons -->
    <g transform="translate(200,200)">
        <circle cx="0" cy="0" r="40" fill="white"/>
        <path d="M-15 0 L15 0 M0 -15 L0 15" stroke="#00D54B" stroke-width="4"/>
    </g>
    
    <g transform="translate(600,200)">
        <circle cx="0" cy="0" r="40" fill="white"/>
        <path d="M-15 0 L15 0 M0 -15 L0 15" stroke="#00D54B" stroke-width="4"/>
    </g>
    
    <!-- Connecting Lines -->
    <path d="M250 200 C300 200, 350 150, 400 150" stroke="#00D54B" stroke-width="2" stroke-dasharray="4"/>
    <path d="M550 200 C500 200, 450 250, 400 250" stroke="#00D54B" stroke-width="2" stroke-dasharray="4"/>
    
    <!-- Title -->
    <text x="400" y="80" font-family="Arial" font-size="24" fill="#000000" text-anchor="middle">What is Cash App?</text>
    <text x="400" y="110" font-family="Arial" font-size="16" fill="#666666" text-anchor="middle">Your guide to modern money management</text>
</svg>